<?xml version="1.0" encoding="utf-8"?>
<!-- Generator: Adobe Illustrator 24.0.2, SVG Export Plug-In . SVG Version: 6.00 Build 0)  -->
<svg version="1.1" id="Capa_1" xmlns="http://www.w3.org/2000/svg" xmlns:xlink="http://www.w3.org/1999/xlink" x="0px" y="0px"
	 viewBox="0 0 1366 768" style="enable-background:new 0 0 1366 768;" xml:space="preserve">
<style type="text/css">
	.st0{fill:#FFFFFF;}
	.st1{fill-rule:evenodd;clip-rule:evenodd;fill:#FFFFFF;}
</style>
<g>
	<g>
		<g>
			<path d="M541.01,389.48c0-19.97-16.19-36.16-36.16-36.16c-19.97,0-36.16,16.19-36.16,36.16c0,18.05,13.22,33,30.51,35.72v-25.27
				h-9.18v-10.45h9.18v-7.97c0-9.06,5.4-14.07,13.66-14.07c3.96,0,8.09,0.71,8.09,0.71v8.9h-4.56c-4.49,0-5.89,2.79-5.89,5.65v6.78
				h10.03l-1.6,10.45h-8.42v25.27C527.79,422.49,541.01,407.53,541.01,389.48z"/>
			<path class="st0" d="M518.93,399.93l1.6-10.45h-10.03v-6.78c0-2.86,1.4-5.65,5.89-5.65h4.56v-8.9c0,0-4.14-0.71-8.09-0.71
				c-8.26,0-13.66,5.01-13.66,14.07v7.97h-9.18v10.45h9.18v25.27c1.84,0.29,3.73,0.44,5.65,0.44c1.92,0,3.81-0.15,5.65-0.44v-25.27
				H518.93z"/>
		</g>
	</g>
	<g>
		<circle cx="596.2" cy="389.83" r="36.5"/>
		<g>
			<g>
				<path class="st0" d="M607.53,376.02c-1.39,0-2.51,1.12-2.51,2.51c0,1.39,1.12,2.51,2.51,2.51c1.39,0,2.51-1.12,2.51-2.51
					C610.04,377.14,608.92,376.02,607.53,376.02z"/>
				<path class="st0" d="M596.38,379.24c-5.81,0-10.54,4.73-10.54,10.54c0,5.81,4.73,10.54,10.54,10.54
					c5.81,0,10.54-4.73,10.54-10.54C606.92,383.96,602.19,379.24,596.38,379.24z M596.38,396.53c-3.72,0-6.75-3.03-6.75-6.75
					c0-3.72,3.03-6.75,6.75-6.75c3.72,0,6.75,3.03,6.75,6.75C603.13,393.5,600.1,396.53,596.38,396.53z"/>
				<path class="st0" d="M604.74,411.17h-17.09c-7.09,0-12.85-5.77-12.85-12.85v-17.09c0-7.09,5.77-12.85,12.85-12.85h17.09
					c7.09,0,12.86,5.77,12.86,12.85v17.09C617.6,405.41,611.83,411.17,604.74,411.17z M587.66,372.4c-4.87,0-8.83,3.96-8.83,8.83
					v17.09c0,4.87,3.96,8.83,8.83,8.83h17.09c4.87,0,8.83-3.96,8.83-8.83v-17.09c0-4.87-3.96-8.83-8.83-8.83H587.66z"/>
			</g>
		</g>
	</g>
	<g>
		<ellipse transform="matrix(0.6543 -0.7562 0.7562 0.6543 -25.6558 722.8387)" cx="777.86" cy="389.48" rx="36.16" ry="36.16"/>
		<path class="st0" d="M758.32,409.94l3.01-11.25c-1.71-3.08-2.61-6.53-2.61-10.03c0-11.45,9.32-20.77,20.77-20.77
			c11.45,0,20.77,9.32,20.77,20.77c0,11.45-9.32,20.77-20.77,20.77c-3.44,0-6.83-0.87-9.87-2.52L758.32,409.94z M770.19,402.7
			l0.71,0.42c2.61,1.56,5.59,2.38,8.6,2.38c9.29,0,16.84-7.56,16.84-16.84c0-9.29-7.56-16.84-16.84-16.84
			c-9.29,0-16.84,7.56-16.84,16.84c0,3.07,0.85,6.09,2.46,8.73l0.44,0.72l-1.68,6.28L770.19,402.7z"/>
		<path class="st1" d="M787.23,391.55c-0.85-0.51-1.97-1.08-2.97-0.67c-0.77,0.32-1.27,1.53-1.77,2.14
			c-0.26,0.32-0.56,0.37-0.96,0.21c-2.9-1.15-5.12-3.09-6.72-5.76c-0.27-0.41-0.22-0.74,0.1-1.13c0.48-0.57,1.09-1.22,1.22-1.98
			c0.13-0.77-0.23-1.66-0.55-2.35c-0.41-0.87-0.86-2.12-1.73-2.61c-0.8-0.45-1.86-0.2-2.58,0.38c-1.24,1.01-1.83,2.58-1.81,4.15
			c0.01,0.44,0.06,0.89,0.16,1.32c0.25,1.03,0.73,1.99,1.26,2.91c0.4,0.69,0.84,1.36,1.32,2c1.55,2.11,3.48,3.94,5.72,5.31
			c1.12,0.68,2.32,1.28,3.56,1.69c1.4,0.46,2.64,0.94,4.15,0.66c1.58-0.3,3.14-1.28,3.76-2.8c0.19-0.45,0.28-0.95,0.17-1.43
			C789.35,392.61,788.02,392.03,787.23,391.55z"/>
	</g>
	<g>
		<circle cx="872.8" cy="390.34" r="37.02"/>
		<path class="st0" d="M894.62,385.06c0-4.91-3.98-8.89-8.89-8.89H863c-4.91,0-8.89,3.98-8.89,8.89v10.58
			c0,4.91,3.98,8.89,8.89,8.89h22.73c4.91,0,8.89-3.98,8.89-8.89V385.06z M881.25,391.14l-10.19,5.04c-0.4,0.22-1.76-0.07-1.76-0.53
			V385.3c0-0.46,1.37-0.75,1.77-0.52l9.76,5.31C881.24,390.32,881.67,390.91,881.25,391.14z"/>
	</g>
	<circle cx="686.17" cy="389.6" r="34.71"/>
	<path class="st0" d="M671.61,383.13h6.72v21.6h-6.72V383.13z M674.97,372.4c2.15,0,3.89,1.74,3.89,3.89c0,2.15-1.74,3.9-3.89,3.9
		c-2.16,0-3.9-1.75-3.9-3.9C671.08,374.14,672.82,372.4,674.97,372.4"/>
	<path class="st0" d="M682.55,383.13h6.44v2.95h0.09c0.9-1.7,3.09-3.49,6.36-3.49c6.8,0,8.05,4.47,8.05,10.29v11.85h-6.71v-10.5
		c0-2.51-0.05-5.73-3.49-5.73c-3.49,0-4.03,2.73-4.03,5.54v10.68h-6.71V383.13z"/>
</g>
</svg>
